<svg id="Layer_1" data-name="Layer 1" xmlns="http://www.w3.org/2000/svg" viewBox="0 0 1080 1080"><defs><style>.cls-1{fill:#35d3fd;}</style></defs><path class="cls-1" d="M1018.91,337.67A521.38,521.38,0,1,0,1059.77,540,518.09,518.09,0,0,0,1018.91,337.67ZM725.23,782.49c-9.12-14.83-26.9-22.21-44.15-24.58-45.94-6.33-90.3,15.92-132.84,34.38C460.33,830.44,364.48,854.86,269,847.05a273.39,273.39,0,0,1-34.41-5,434.52,434.52,0,0,1-36.27-41.68c63.17,15.06,128.6,20.62,191.25,5.34,80.47-19.63,149.66-71.82,229.32-94.55,26.49-7.56,55-11.71,81.45-4.07,27.39,7.9,49.71,27.51,69.84,47.69,7.33,7.35,15.49,15.33,25.84,16.09s19.84-6.1,26.85-13.83c32.14-35.4,29.42-96.74-5.74-129.14-26.6-24.52-66-31.23-101.69-25.32s-68.49,22.93-99.79,41.07c-52.88,30.64-103.54,65.2-158,92.89s-113.82,48.56-174.94,49.19c-38.6.4-78-8.17-111.95-26.12a426.8,426.8,0,0,1-24.05-46.52c18,8,36.41,15.41,55.47,20.67,103,28.44,214.17-7.72,304.49-64.88,52.61-33.29,101.57-74.11,160.24-94.94s132.42-16.25,172.7,31.22c19.39,22.86,28.54,52.4,42.14,79.11,9.86,19.36,23.82,38.39,42,49.23C852.78,873.54,707.42,969.77,540,969.77A427.48,427.48,0,0,1,282.63,884l1.34.49c67.08,24.12,136.87,43.38,208.14,44.7s144.64-16.63,200.77-60.58c13.24-10.37,25.7-22.46,32.88-37.68S734,796.82,725.23,782.49Zm241-282.94c-7.88-9.2-14.74-19.73-22.87-28.72-62.74-69.38-157.33-104.32-249.88-102.51-81.86,1.6-148.51,53-206.08,106.06-63.16,58.26-130.33,124.41-211,157.49-38.61,15.82-79.53,24-121.34,21.53-10.07-.61-20.12-1.73-30.19-2A428.87,428.87,0,0,1,110.23,540C110.23,303,303,110.23,540,110.23c224,0,408.56,172.29,428.07,391.33C967.47,500.9,966.86,500.24,966.27,499.55Z"/></svg>