<svg id="Layer_1" data-name="Layer 1" xmlns="http://www.w3.org/2000/svg" viewBox="0 0 1080 1080"><defs><style>.cls-1{fill:#26bfad;}</style></defs><path class="cls-1" d="M1018.91,337.67A521.38,521.38,0,1,0,1059.77,540,518.09,518.09,0,0,0,1018.91,337.67ZM649.76,889.08a110.89,110.89,0,0,0,0-221.78H129.47a426.16,426.16,0,0,1-15.32-69.15H759.62A143.32,143.32,0,1,0,616.3,454.83c0,1.89.07,3.75.14,5.62h68.29c-.14-1.86-.28-3.72-.28-5.62A75.17,75.17,0,1,1,759.62,530H110.35a428.58,428.58,0,0,1,7.58-71.24H432.07A143.32,143.32,0,1,0,288.75,315.45c0,1.88.07,3.75.14,5.62h68.29c-.14-1.87-.28-3.73-.28-5.62a75.17,75.17,0,1,1,75.17,75.17H137c60.82-163.56,218.51-280.39,403-280.39C777,110.23,969.77,303,969.77,540S777,969.77,540,969.77c-165.77,0-309.92-94.34-381.58-232.15H649.76v-.11a40.68,40.68,0,1,1-40.68,40.68H538.87A110.89,110.89,0,0,0,649.76,889.08Z"/></svg>