<svg id="Layer_14" data-name="Layer 14" xmlns="http://www.w3.org/2000/svg" viewBox="0 0 1605.01 195.41"><defs><style>.cls-1{fill:#fff;}</style></defs><path class="cls-1" d="M157.13,181.08a86.1,86.1,0,0,1-32.86-6.3A81.94,81.94,0,0,1,72.91,98a81.73,81.73,0,0,1,6.55-32.62,83.3,83.3,0,0,1,18-26.6A85.7,85.7,0,0,1,124,20.9a80.79,80.79,0,0,1,32.48-6.57q22.19,0,40,9.39a81.5,81.5,0,0,1,29.44,26.44l-12.66,8.9A73,73,0,0,0,190,37q-13.64-8.09-33.34-8.08A64.22,64.22,0,0,0,130,34.41a65.89,65.89,0,0,0-21.16,15A68.8,68.8,0,0,0,95,71.43a73.87,73.87,0,0,0-.11,53,66.06,66.06,0,0,0,34.81,36.63,63.84,63.84,0,0,0,26.79,5.54q20.25,0,33.83-5.75t19.22-13.79V112.69H166.87V98.25h59.44v53.3a43.68,43.68,0,0,1-9.58,10.91,66.86,66.86,0,0,1-15.11,9.45,100.34,100.34,0,0,1-20,6.62A110.48,110.48,0,0,1,157.13,181.08Z"/><path class="cls-1" d="M456.74,181a64.79,64.79,0,0,1-15.15-2.39A65.72,65.72,0,0,1,425,171.8a51.88,51.88,0,0,1-13.05-10.75,42.63,42.63,0,0,1-8.22-14.17A57.53,57.53,0,0,1,401,134.24a138.31,138.31,0,0,1-.7-14.06V16.61h16.89V121.15q0,4.89.32,9.88a40.28,40.28,0,0,0,1.63,9.23,31.67,31.67,0,0,0,5.74,10.53,40,40,0,0,0,9.31,8.31,44.68,44.68,0,0,0,12.23,5.48,47.25,47.25,0,0,0,10.28,1.95Zm8.55-14.55a48.79,48.79,0,0,0,9.86-1.84,45,45,0,0,0,12.23-5.48,40.19,40.19,0,0,0,9.31-8.31,27.55,27.55,0,0,0,5.41-10.53,48.48,48.48,0,0,0,1.52-9.44q.31-5,.32-9.67V16.61h16.78V120q0,7.17-.54,14a51.83,51.83,0,0,1-2.49,12.54,43.28,43.28,0,0,1-8.23,14.22,54.15,54.15,0,0,1-13,11,62.52,62.52,0,0,1-16.62,7A67.06,67.06,0,0,1,465.29,181Z"/><path class="cls-1" d="M693.67,16.61h16.89v162.3H693.67Z"/><path class="cls-1" d="M883.41,16.61H900.3V164.47H973v14.44H883.41Z"/><path class="cls-1" d="M1137,16.61h45.69c3,0,6.54.15,10.77.43a103.82,103.82,0,0,1,12.07,1.52,82.45,82.45,0,0,1,25,9,72.87,72.87,0,0,1,20.3,16.66,78.29,78.29,0,0,1,13.64,23.67,84.84,84.84,0,0,1,5,29.64,83.7,83.7,0,0,1-4.55,28.06,82,82,0,0,1-12.5,23.12A76.16,76.16,0,0,1,1233.41,166a79.56,79.56,0,0,1-23.65,10.37,58.42,58.42,0,0,1-12.29,2.06q-6.56.43-14.34.44H1137Zm45.25,147.86q6.93,0,12.89-.43a57,57,0,0,0,11-1.85,56,56,0,0,0,18.78-8.63,63.91,63.91,0,0,0,14.61-14.33,65.66,65.66,0,0,0,9.53-18.78A72.14,72.14,0,0,0,1252.52,98,77.93,77.93,0,0,0,1249,74a62.76,62.76,0,0,0-10-19.27,57.12,57.12,0,0,0-15.42-13.89,65.8,65.8,0,0,0-19.81-8,62.83,62.83,0,0,0-10.67-1.41q-6-.32-10.88-.32H1153.9V164.47Z"/><path class="cls-1" d="M1480.68,181.08a73.09,73.09,0,0,1-29.44-6,62.37,62.37,0,0,1-23.93-18.67l12.13-10.21a53.36,53.36,0,0,0,17.91,15,50.39,50.39,0,0,0,23.77,5.65,37.49,37.49,0,0,0,14.12-2.55,32.51,32.51,0,0,0,10.78-6.9,30.45,30.45,0,0,0,6.87-10.2,32.57,32.57,0,0,0,2.43-12.59,24.44,24.44,0,0,0-2.21-10.75,28.3,28.3,0,0,0-5.9-8.09,36.83,36.83,0,0,0-8.77-6.13q-5.1-2.61-10.61-4.78l-19-7.38a100,100,0,0,1-12.89-6.08,44.65,44.65,0,0,1-10.82-8.47,39.48,39.48,0,0,1-7.47-11.56,39,39,0,0,1-2.82-15.47,37.14,37.14,0,0,1,3.68-16.39,41.12,41.12,0,0,1,10-13.14,48.5,48.5,0,0,1,14.94-8.79,52.32,52.32,0,0,1,18.67-3.26q14.4,0,24,4.12A68.41,68.41,0,0,1,1524.2,30L1514,41.69a48.26,48.26,0,0,0-14.13-9.5,44.43,44.43,0,0,0-17.81-3.31,34.93,34.93,0,0,0-11.91,1.95,28.61,28.61,0,0,0-9.52,5.65,27,27,0,0,0-6.44,8.57,24.33,24.33,0,0,0-2.33,10.64,21.2,21.2,0,0,0,2,9.5,25.56,25.56,0,0,0,5.3,7.22A36.19,36.19,0,0,0,1467,78a85,85,0,0,0,9.64,4.4l18.4,7.38a116.76,116.76,0,0,1,13.8,6.51,52.72,52.72,0,0,1,11.86,8.91,39.61,39.61,0,0,1,8.28,12.32,42.12,42.12,0,0,1,3.08,16.88,43.13,43.13,0,0,1-3.95,18.4,46,46,0,0,1-10.93,14.87,50.22,50.22,0,0,1-16.4,9.88A57,57,0,0,1,1480.68,181.08Z"/></svg>